<svg width="69" height="61" viewBox="0 0 69 61" fill="none" xmlns="http://www.w3.org/2000/svg">
<g filter="url(#filter0_d_1_553)">
<path d="M47.3533 28.8436L48.3678 20.4406C48.5344 19.0198 47.8038 17.6402 46.5298 16.9954L42.5866 14.9994L41.0512 18.0327L44.9945 20.0287L44.138 27.2161L36.8429 23.5235L37.0646 21.7305L38.7481 22.5826L40.2835 19.5493L32.7002 15.7109L31.1648 18.7442L33.819 20.0876L32.7409 29.0681L31.7247 28.5538C32.7693 24.8338 31.1999 20.8958 27.7353 18.9326C23.5962 16.5707 18.0917 18.2237 15.9421 22.4703C13.7926 26.7169 15.4403 31.7425 19.687 33.892C23.4179 35.7805 27.7335 34.7451 30.1893 31.5871L36.5593 34.8113C35.5146 38.5313 37.0841 42.4693 40.5486 44.4325C44.6954 46.7792 50.1923 45.1414 52.3495 40.8796C54.499 36.633 52.8513 31.6075 48.6047 29.4579L47.361 28.8284L47.3533 28.8436ZM27.0347 29.9903C25.5298 31.4577 23.2395 31.8797 21.2223 30.8587C18.6744 29.569 17.6857 26.5536 18.9755 24.0057C20.2652 21.4577 23.2805 20.4691 25.8285 21.7588C27.8456 22.7798 28.8616 24.8754 28.5701 26.957L24.2931 24.7921L22.7577 27.8254L27.0347 29.9903ZM38.0946 31.778L35.9713 30.7033L36.3995 27.1096L40.995 29.4357C39.8824 29.9775 38.8827 30.748 38.0946 31.778ZM42.4555 41.6063C39.9075 40.3166 38.9189 37.3013 40.2086 34.7533C40.9225 33.3428 42.1585 32.4442 43.5514 32.1014L42.9807 36.8423L46.354 37.2543L46.9326 32.4602C46.9781 32.4832 47.0313 32.4911 47.0768 32.5141C49.6248 33.8038 50.6134 36.8191 49.3237 39.3671C48.034 41.9151 45.0035 42.896 42.4555 41.6063Z" fill="#FFEA00"/>
</g>
<defs>
<filter id="filter0_d_1_553" x="0" y="0" width="68.291" height="60.5059" filterUnits="userSpaceOnUse" color-interpolation-filters="sRGB">
<feFlood flood-opacity="0" result="BackgroundImageFix"/>
<feColorMatrix in="SourceAlpha" type="matrix" values="0 0 0 0 0 0 0 0 0 0 0 0 0 0 0 0 0 0 127 0" result="hardAlpha"/>
<feOffset/>
<feGaussianBlur stdDeviation="7.5"/>
<feComposite in2="hardAlpha" operator="out"/>
<feColorMatrix type="matrix" values="0 0 0 0 1 0 0 0 0 0.916667 0 0 0 0 0 0 0 0 1 0"/>
<feBlend mode="normal" in2="BackgroundImageFix" result="effect1_dropShadow_1_553"/>
<feBlend mode="normal" in="SourceGraphic" in2="effect1_dropShadow_1_553" result="shape"/>
</filter>
</defs>
</svg>
