<svg width="69" height="61" viewBox="0 0 69 61" fill="none" xmlns="http://www.w3.org/2000/svg">
<g filter="url(#filter0_d_124_2005)">
<path d="M47.3533 28.8446L48.3678 20.4416C48.5344 19.0208 47.8038 17.6412 46.5298 16.9963L42.5866 15.0003L41.0512 18.0337L44.9945 20.0296L44.138 27.2171L36.8429 23.5245L37.0646 21.7315L38.7481 22.5836L40.2835 19.5503L32.7002 15.7119L31.1648 18.7452L33.819 20.0886L32.7409 29.0691L31.7247 28.5547C32.7693 24.8348 31.1999 20.8968 27.7353 18.9335C23.5962 16.5717 18.0917 18.2246 15.9421 22.4713C13.7926 26.7179 15.4403 31.7434 19.687 33.893C23.4179 35.7815 27.7335 34.746 30.1893 31.588L36.5593 34.8123C35.5146 38.5322 37.0841 42.4703 40.5486 44.4335C44.6954 46.7802 50.1923 45.1424 52.3495 40.8806C54.499 36.634 52.8513 31.6084 48.6047 29.4589L47.361 28.8294L47.3533 28.8446ZM27.0347 29.9912C25.5298 31.4586 23.2395 31.8807 21.2223 30.8597C18.6744 29.5699 17.6857 26.5546 18.9755 24.0066C20.2652 21.4587 23.2805 20.47 25.8285 21.7597C27.8456 22.7808 28.8616 24.8764 28.5701 26.9579L24.2931 24.7931L22.7577 27.8264L27.0347 29.9912ZM38.0946 31.779L35.9713 30.7043L36.3995 27.1105L40.995 29.4366C39.8824 29.9785 38.8827 30.749 38.0946 31.779ZM42.4555 41.6073C39.9075 40.3176 38.9189 37.3023 40.2086 34.7543C40.9225 33.3438 42.1585 32.4452 43.5514 32.1024L42.9807 36.8433L46.354 37.2553L46.9326 32.4611C46.9781 32.4842 47.0313 32.492 47.0768 32.5151C49.6248 33.8048 50.6134 36.8201 49.3237 39.3681C48.034 41.9161 45.0035 42.897 42.4555 41.6073Z" fill="#F9A825"/>
</g>
<defs>
<filter id="filter0_d_124_2005" x="0" y="0" width="68.291" height="60.5078" filterUnits="userSpaceOnUse" color-interpolation-filters="sRGB">
<feFlood flood-opacity="0" result="BackgroundImageFix"/>
<feColorMatrix in="SourceAlpha" type="matrix" values="0 0 0 0 0 0 0 0 0 0 0 0 0 0 0 0 0 0 127 0" result="hardAlpha"/>
<feOffset/>
<feGaussianBlur stdDeviation="7.5"/>
<feComposite in2="hardAlpha" operator="out"/>
<feColorMatrix type="matrix" values="0 0 0 0 1 0 0 0 0 0.916667 0 0 0 0 0 0 0 0 1 0"/>
<feBlend mode="normal" in2="BackgroundImageFix" result="effect1_dropShadow_124_2005"/>
<feBlend mode="normal" in="SourceGraphic" in2="effect1_dropShadow_124_2005" result="shape"/>
</filter>
</defs>
</svg>
