<svg width="58" height="58" viewBox="0 0 58 58" fill="none" xmlns="http://www.w3.org/2000/svg">
<g filter="url(#filter0_d_1_555)">
<path d="M25.5705 26.6255L27.9576 26.1353C28.2813 26.0688 28.5289 25.9055 28.7004 25.6454C28.8718 25.3853 28.9243 25.0934 28.8578 24.7697C28.7914 24.446 28.6242 24.1959 28.3562 24.0193C28.0877 23.8422 27.7916 23.787 27.4679 23.8534L23.9479 24.5764C23.7861 24.6097 23.6475 24.6699 23.5321 24.7571C23.4162 24.8439 23.3153 24.9523 23.2296 25.0824C23.1438 25.2124 23.0839 25.3478 23.0499 25.4886C23.0152 25.629 23.0145 25.7801 23.0477 25.942L23.7707 29.462C23.8372 29.7856 24.0047 30.036 24.2732 30.213C24.5412 30.3896 24.8369 30.4447 25.1606 30.3782C25.4843 30.3117 25.7319 30.1485 25.9033 29.8883C26.0748 29.6282 26.1273 29.3363 26.0608 29.0127L25.5705 26.6255ZM31.7643 30.7086L29.3772 31.1988C29.0535 31.2653 28.8059 31.4286 28.6344 31.6887C28.463 31.9488 28.4105 32.2407 28.477 32.5644C28.5434 32.8881 28.711 33.1384 28.9795 33.3155C29.2474 33.4921 29.5432 33.5471 29.8669 33.4807L33.3869 32.7577C33.5487 32.7244 33.6873 32.6642 33.8027 32.577C33.9186 32.4902 34.0195 32.3818 34.1052 32.2517C34.191 32.1217 34.2508 31.9863 34.2849 31.8455C34.3196 31.7051 34.3203 31.554 34.2871 31.3921L33.5641 27.8721C33.5309 27.7103 33.4695 27.5649 33.3801 27.436C33.29 27.3066 33.1841 27.2019 33.0625 27.1217C32.9403 27.0411 32.8023 26.9851 32.6485 26.9537C32.4941 26.9219 32.336 26.9226 32.1742 26.9559C31.8505 27.0224 31.6029 27.1857 31.4315 27.4458C31.26 27.7059 31.2075 27.9978 31.274 28.3214L31.7643 30.7086ZM16.0527 32.9447C15.5162 32.591 15.1826 32.0973 15.0519 31.4635C14.9223 30.8296 15.0342 30.2443 15.3879 29.7079L24.3898 16.0524C24.7434 15.5159 25.2371 15.1823 25.8709 15.0516C26.5049 14.9219 27.0901 15.0339 27.6266 15.3875L41.2821 24.3894C41.8186 24.7431 42.1522 25.2368 42.2829 25.8706C42.4125 26.5045 42.3005 27.0898 41.9469 27.6262L32.945 41.2818C32.5914 41.8182 32.0977 42.1518 31.4639 42.2825C30.8299 42.4122 30.2447 42.3002 29.7082 41.9466L16.0527 32.9447Z" fill="#FFEA00"/>
</g>
<defs>
<filter id="filter0_d_1_555" x="0" y="0" width="57.335" height="57.334" filterUnits="userSpaceOnUse" color-interpolation-filters="sRGB">
<feFlood flood-opacity="0" result="BackgroundImageFix"/>
<feColorMatrix in="SourceAlpha" type="matrix" values="0 0 0 0 0 0 0 0 0 0 0 0 0 0 0 0 0 0 127 0" result="hardAlpha"/>
<feOffset/>
<feGaussianBlur stdDeviation="7.5"/>
<feComposite in2="hardAlpha" operator="out"/>
<feColorMatrix type="matrix" values="0 0 0 0 1 0 0 0 0 0.916667 0 0 0 0 0 0 0 0 1 0"/>
<feBlend mode="normal" in2="BackgroundImageFix" result="effect1_dropShadow_1_555"/>
<feBlend mode="normal" in="SourceGraphic" in2="effect1_dropShadow_1_555" result="shape"/>
</filter>
</defs>
</svg>
