<svg width="69" height="26" viewBox="0 0 69 26" fill="none" xmlns="http://www.w3.org/2000/svg">
<path d="M1.672 20V5.018H6.71C8.19133 5.018 9.49667 5.31867 10.626 5.92C11.7553 6.52133 12.6353 7.38667 13.266 8.516C13.8967 9.63067 14.212 10.9727 14.212 12.542C14.212 14.126 13.8893 15.4753 13.244 16.59C12.6133 17.7047 11.7333 18.5553 10.604 19.142C9.47467 19.714 8.16933 20 6.688 20H1.672ZM4.224 18.306L3.366 17.58H6.534C7.48733 17.58 8.338 17.404 9.086 17.052C9.84867 16.6853 10.45 16.1353 10.89 15.402C11.3447 14.654 11.572 13.7007 11.572 12.542C11.572 11.4127 11.352 10.474 10.912 9.726C10.472 8.96333 9.87067 8.39133 9.108 8.01C8.36 7.62867 7.50933 7.438 6.556 7.438H3.212L4.224 6.602V18.306ZM19.4018 20.308C18.5804 20.308 17.8691 20.1613 17.2678 19.868C16.6811 19.56 16.2264 19.1347 15.9038 18.592C15.5811 18.0493 15.4198 17.404 15.4198 16.656C15.4198 15.9227 15.5811 15.2847 15.9038 14.742C16.2411 14.1993 16.7104 13.774 17.3118 13.466C17.9131 13.1433 18.6098 12.982 19.4018 12.982C20.4431 12.982 21.2791 13.2167 21.9098 13.686C22.5551 14.1553 22.9951 14.8153 23.2298 15.666L21.9538 15.578V12.916C21.9538 12.476 21.7998 12.08 21.4918 11.728C21.1984 11.376 20.6924 11.2 19.9738 11.2C19.5631 11.2 19.1084 11.2513 18.6098 11.354C18.1111 11.442 17.5978 11.6107 17.0698 11.86L16.2998 9.968C16.9158 9.66 17.5611 9.42533 18.2358 9.264C18.9251 9.10267 19.6071 9.022 20.2818 9.022C21.2351 9.022 22.0198 9.198 22.6358 9.55C23.2664 9.88733 23.7358 10.3493 24.0438 10.936C24.3518 11.5227 24.5058 12.1973 24.5058 12.96V20H22.5478L21.9758 17.998L23.2298 17.624C22.9804 18.504 22.5184 19.1713 21.8438 19.626C21.1838 20.0807 20.3698 20.308 19.4018 20.308ZM19.9958 18.218C20.5824 18.218 21.0518 18.0787 21.4038 17.8C21.7704 17.5213 21.9538 17.14 21.9538 16.656C21.9538 16.1427 21.7704 15.754 21.4038 15.49C21.0518 15.2113 20.5824 15.072 19.9958 15.072C19.4091 15.072 18.9324 15.2113 18.5658 15.49C18.2138 15.754 18.0378 16.1427 18.0378 16.656C18.0378 17.14 18.2138 17.5213 18.5658 17.8C18.9324 18.0787 19.4091 18.218 19.9958 18.218ZM33.3288 9.022C34.0915 9.022 34.6928 9.14667 35.1328 9.396C35.5728 9.64533 35.9028 9.99 36.1228 10.43C36.3428 10.8553 36.4821 11.3393 36.5408 11.882C36.6141 12.41 36.6508 12.96 36.6508 13.532V20H34.0988V13.312C34.0988 12.5933 33.9448 12.1167 33.6368 11.882C33.3435 11.6327 32.9768 11.508 32.5368 11.508C32.1261 11.508 31.7008 11.596 31.2608 11.772C30.8355 11.9333 30.4468 12.1607 30.0948 12.454C29.7428 12.7327 29.4568 13.0553 29.2368 13.422L29.0388 12.036H29.5888V20H27.0368V9.264H28.9508L29.4788 11.222L28.7308 11.244C29.1415 10.7893 29.5888 10.4007 30.0728 10.078C30.5568 9.74067 31.0701 9.484 31.6128 9.308C32.1701 9.11733 32.7421 9.022 33.3288 9.022ZM41.7715 20H39.2195V9.264H41.7715V20ZM38.8895 5.92C38.8895 5.45067 39.0288 5.06933 39.3075 4.776C39.6008 4.468 39.9968 4.314 40.4955 4.314C40.9648 4.314 41.3461 4.468 41.6395 4.776C41.9328 5.06933 42.0795 5.45067 42.0795 5.92C42.0795 6.38933 41.9328 6.77067 41.6395 7.064C41.3461 7.35733 40.9648 7.504 40.4955 7.504C39.9968 7.504 39.6008 7.35733 39.3075 7.064C39.0288 6.77067 38.8895 6.38933 38.8895 5.92ZM44.8126 20V5.018H50.3346C51.376 5.018 52.2926 5.238 53.0846 5.678C53.8766 6.10333 54.4926 6.69 54.9326 7.438C55.3873 8.186 55.6146 9.044 55.6146 10.012C55.6146 10.98 55.3873 11.838 54.9326 12.586C54.4926 13.334 53.8766 13.9207 53.0846 14.346C52.2926 14.7567 51.376 14.962 50.3346 14.962H46.8586V12.542H50.0046C50.914 12.542 51.6326 12.322 52.1606 11.882C52.7033 11.4273 52.9746 10.804 52.9746 10.012C52.9746 9.16133 52.7033 8.52333 52.1606 8.098C51.6326 7.658 50.914 7.438 50.0046 7.438H46.8366L47.3646 6.866V20H44.8126ZM52.9746 20L49.5866 13.818H52.3806L55.7686 20H52.9746ZM62.2787 20.242C61.1787 20.242 60.2107 20.0073 59.3747 19.538C58.5387 19.0687 57.8861 18.416 57.4167 17.58C56.9621 16.7293 56.7347 15.754 56.7347 14.654C56.7347 13.5247 56.9621 12.542 57.4167 11.706C57.8861 10.8553 58.5387 10.1953 59.3747 9.726C60.2107 9.25667 61.1787 9.022 62.2787 9.022C63.3787 9.022 64.3467 9.25667 65.1827 9.726C66.0187 10.1953 66.6641 10.8553 67.1187 11.706C67.5881 12.542 67.8227 13.5247 67.8227 14.654C67.8227 15.754 67.5881 16.7293 67.1187 17.58C66.6641 18.416 66.0187 19.0687 65.1827 19.538C64.3467 20.0073 63.3787 20.242 62.2787 20.242ZM62.2787 17.778C63.1587 17.778 63.8701 17.492 64.4127 16.92C64.9554 16.3333 65.2267 15.5707 65.2267 14.632C65.2267 13.6933 64.9554 12.938 64.4127 12.366C63.8701 11.7793 63.1587 11.486 62.2787 11.486C61.3987 11.486 60.6874 11.772 60.1447 12.344C59.6021 12.916 59.3307 13.6787 59.3307 14.632C59.3307 15.5707 59.6021 16.3333 60.1447 16.92C60.6874 17.492 61.3987 17.778 62.2787 17.778Z" fill="white"/>
<line x1="32" y1="24" x2="62" y2="24" stroke="#FF6F61" stroke-width="2"/>
<circle cx="66" cy="24" r="2" fill="#FFEA00"/>
</svg>
