<svg width="62" height="72" viewBox="0 0 62 72" fill="none" xmlns="http://www.w3.org/2000/svg">
<g filter="url(#filter0_d_124_2008)">
<path d="M14.9998 37.8475L20.1929 46.5396C19.6576 46.6434 19.1277 46.8201 18.6313 47.1167C16.299 48.5101 15.5411 51.5176 16.9345 53.8499C18.328 56.1821 21.3354 56.94 23.6677 55.5466C25.8314 54.2539 26.6223 51.5571 25.5974 49.3097L25.6442 49.2818L19.4886 38.9786L23.2352 36.7402L21.5563 33.9302L14.9998 37.8475Z" fill="#F9A825"/>
<path d="M38.5409 19.5978L41.6355 29.2386C41.0905 29.2187 40.5344 29.2712 39.9838 29.4479C37.397 30.2783 35.9791 33.0367 36.8095 35.6235C37.6398 38.2103 40.3982 39.6282 42.985 38.7978C45.3848 38.0275 46.7648 35.5792 46.2742 33.1584L46.3261 33.1417L42.6579 21.714L46.8135 20.3802L45.813 17.2635L38.5409 19.5978Z" fill="#F9A825"/>
<path d="M22.4063 19.2279L28.0108 27.6607C27.4811 27.79 26.9603 27.992 26.4787 28.3121C24.216 29.8159 23.6034 32.8563 25.1072 35.119C26.611 37.3817 29.6514 37.9942 31.9141 36.4904C34.0132 35.0953 34.6737 32.3637 33.5421 30.1681L33.5875 30.1379L26.9442 20.1422L30.579 17.7265L28.7672 15.0004L22.4063 19.2279Z" fill="#F9A825"/>
</g>
<defs>
<filter id="filter0_d_124_2008" x="0" y="0" width="61.8135" height="71.2441" filterUnits="userSpaceOnUse" color-interpolation-filters="sRGB">
<feFlood flood-opacity="0" result="BackgroundImageFix"/>
<feColorMatrix in="SourceAlpha" type="matrix" values="0 0 0 0 0 0 0 0 0 0 0 0 0 0 0 0 0 0 127 0" result="hardAlpha"/>
<feOffset/>
<feGaussianBlur stdDeviation="7.5"/>
<feComposite in2="hardAlpha" operator="out"/>
<feColorMatrix type="matrix" values="0 0 0 0 1 0 0 0 0 0.916667 0 0 0 0 0 0 0 0 1 0"/>
<feBlend mode="normal" in2="BackgroundImageFix" result="effect1_dropShadow_124_2008"/>
<feBlend mode="normal" in="SourceGraphic" in2="effect1_dropShadow_124_2008" result="shape"/>
</filter>
</defs>
</svg>
