<svg width="54" height="20" viewBox="0 0 54 20" fill="none" xmlns="http://www.w3.org/2000/svg">
<path d="M10.3201 2.35937C10.5067 2.35937 10.6267 2.43938 10.6801 2.59938L10.7201 2.69937C10.1467 2.69937 9.72008 3.04604 9.44008 3.73938C9.17341 4.41938 8.96674 5.42604 8.82008 6.75937C9.95341 6.97271 10.8201 7.63938 11.4201 8.75938C12.2734 8.21271 12.9334 7.47938 13.4001 6.55938C13.8801 5.63938 14.1201 4.73271 14.1201 3.83937C14.1201 2.94604 13.7801 2.17271 13.1001 1.51938C12.4334 0.866042 11.4734 0.539375 10.2201 0.539375C7.80674 0.539375 5.94008 1.39938 4.62008 3.11938C3.70008 4.33271 3.24008 5.62604 3.24008 6.99938C3.24008 8.37271 3.59341 9.29938 4.30008 9.77938C4.59341 9.96604 4.91341 10.0594 5.26008 10.0594C5.12674 10.366 4.92008 10.5194 4.64008 10.5194C3.64008 10.5194 2.94008 9.99271 2.54008 8.93938C2.34008 8.43271 2.24008 7.85938 2.24008 7.21938C2.24008 6.56604 2.38674 5.83938 2.68008 5.03938C3.29341 3.29271 4.40008 1.97271 6.00008 1.07938C7.22674 0.386042 8.63341 0.0393759 10.2201 0.0393759C11.3534 0.0393759 12.3134 0.219376 13.1001 0.579376C13.8867 0.939375 14.4534 1.39938 14.8001 1.95938C15.1734 2.58604 15.3601 3.25938 15.3601 3.97938C15.3601 4.68604 15.2201 5.36604 14.9401 6.01938C14.6734 6.67271 14.2534 7.31271 13.6801 7.93938C13.1201 8.55271 12.4601 9.04604 11.7001 9.41938C12.0334 10.286 12.3334 11.8994 12.6001 14.2594C12.6934 15.0194 12.8201 15.7594 12.9801 16.4794C13.3267 17.9994 14.0667 18.7594 15.2001 18.7594C15.1734 18.9994 15.0001 19.1194 14.6801 19.1194C13.0534 19.1194 12.0667 18.346 11.7201 16.7994C11.5467 16.066 11.4334 15.326 11.3801 14.5794C11.3401 13.8327 11.3001 12.986 11.2601 12.0394C11.2201 11.0794 11.1267 10.306 10.9801 9.71938C10.2467 9.98604 9.46674 10.1194 8.64008 10.1194H8.46008C8.08674 13.0127 7.45341 14.9927 6.56008 16.0594C6.20008 16.4994 5.72674 16.866 5.14008 17.1594C4.56674 17.4527 3.92674 17.5994 3.22008 17.5994C2.52674 17.5994 1.94008 17.4794 1.46008 17.2394C0.993411 16.9994 0.653411 16.6927 0.440078 16.3194C0.146745 15.7727 7.81324e-05 15.2727 7.81324e-05 14.8194C7.81324e-05 14.366 0.0667448 13.946 0.200078 13.5594C0.333411 13.1594 0.526745 12.7727 0.780078 12.3994C1.03341 12.0127 1.36674 11.6994 1.78008 11.4594C2.19341 11.2194 2.64008 11.0994 3.12008 11.0994C3.38674 11.0994 3.57341 11.1927 3.68008 11.3794L3.72008 11.4794C2.56008 11.4794 1.67341 11.9727 1.06008 12.9594C0.713411 13.5194 0.540078 14.0927 0.540078 14.6794C0.540078 14.946 0.573411 15.2194 0.640078 15.4994C0.933411 16.5394 1.66674 17.0594 2.84008 17.0594C3.40008 17.0594 3.90008 16.9194 4.34008 16.6394C4.79341 16.3594 5.16008 16.0127 5.44008 15.5994C5.73341 15.186 6.00008 14.6394 6.24008 13.9594C6.60008 12.906 6.92008 11.5527 7.20008 9.89938C6.69341 9.72604 6.33341 9.47938 6.12008 9.15938C5.90674 8.82604 5.80008 8.57271 5.80008 8.39938C5.80008 8.22604 5.80008 8.10604 5.80008 8.03937C5.86674 7.69271 6.06674 7.38604 6.40008 7.11938C6.74674 6.83938 7.19341 6.69271 7.74008 6.67938C7.91341 5.77271 8.09341 5.03271 8.28008 4.45938C8.46674 3.87271 8.73341 3.37937 9.08008 2.97938C9.42674 2.56604 9.84008 2.35937 10.3201 2.35937ZM8.62008 9.59938C9.36674 9.59938 10.0934 9.43938 10.8001 9.11938C10.4001 8.06604 9.72674 7.43271 8.78008 7.21938L8.54008 9.59938H8.62008ZM7.66008 7.13938C7.18008 7.17938 6.84008 7.32604 6.64008 7.57938C6.44008 7.81938 6.34008 8.01938 6.34008 8.17938C6.34008 8.72604 6.65341 9.12604 7.28008 9.37938C7.44008 8.36604 7.56674 7.61938 7.66008 7.13938ZM21.7118 15.8794C22.0585 15.8794 22.5452 15.4194 23.1718 14.4994C23.7985 13.5794 24.3385 12.6594 24.7918 11.7394L25.4718 10.3594H26.0118C25.9318 10.5194 25.8252 10.7394 25.6918 11.0194C25.5718 11.286 25.3252 11.7727 24.9518 12.4794C24.5785 13.1727 24.2185 13.786 23.8718 14.3194C23.5385 14.8527 23.1585 15.3394 22.7318 15.7794C22.3185 16.206 21.9252 16.4194 21.5518 16.4194C21.1785 16.4194 20.8718 16.306 20.6318 16.0794C20.3385 15.786 20.1918 15.2727 20.1918 14.5394C20.1918 13.806 20.3185 12.8394 20.5718 11.6394H20.4318C18.8985 14.786 17.6252 16.3594 16.6118 16.3594C15.7185 16.3594 15.2718 15.7794 15.2718 14.6194C15.2718 13.7794 15.6318 12.106 16.3518 9.59938C16.5118 9.02604 16.6318 8.59938 16.7118 8.31938C16.7918 8.02604 16.9185 7.87938 17.0918 7.87938C17.3318 7.87938 17.5052 8.05271 17.6118 8.39938C17.6652 8.54604 17.6918 8.73271 17.6918 8.95937C17.6918 9.17271 17.6585 9.41271 17.5918 9.67938C17.5252 9.93271 17.3852 10.426 17.1718 11.1594C16.5985 13.1327 16.3118 14.4594 16.3118 15.1394C16.3118 15.5794 16.4452 15.7994 16.7118 15.7994C17.0452 15.7994 17.4385 15.4994 17.8918 14.8994C18.3718 14.2727 18.7652 13.666 19.0718 13.0794C19.3785 12.4927 19.6252 12.0127 19.8118 11.6394C19.9985 11.266 20.1852 10.8794 20.3718 10.4794C20.5585 10.066 20.7052 9.72604 20.8118 9.45938C20.9318 9.19271 21.0452 8.93938 21.1518 8.69937C21.2585 8.44604 21.3118 8.31271 21.3118 8.29937C21.4318 8.01938 21.5652 7.87938 21.7118 7.87938C21.9518 7.87938 22.1252 8.05271 22.2318 8.39938C22.2852 8.55938 22.3118 8.75271 22.3118 8.97938C22.3118 9.20604 22.2852 9.44604 22.2318 9.69938C22.1785 9.93938 22.0918 10.2994 21.9718 10.7794C21.8518 11.2594 21.7585 11.6527 21.6918 11.9594C21.6252 12.266 21.5452 12.6394 21.4518 13.0794C21.3185 13.8127 21.2518 14.466 21.2518 15.0394C21.2518 15.5994 21.4052 15.8794 21.7118 15.8794ZM42.6024 2.31938L41.3824 1.93938C40.7424 2.92604 40.0624 4.69938 39.3424 7.25938C39.0491 8.27271 38.7224 9.34604 38.3624 10.4794C38.0158 11.5994 37.6091 12.6527 37.1424 13.6394C36.6891 14.6127 36.1624 15.4994 35.5624 16.2994C34.9758 17.0994 34.2424 17.7327 33.3624 18.1994C32.4824 18.666 31.4958 18.8994 30.4024 18.8994C28.4424 18.8994 27.0158 18.1994 26.1224 16.7994C25.6291 16.0127 25.3824 15.166 25.3824 14.2594C25.3824 13.886 25.4224 13.506 25.5024 13.1194C25.7824 11.826 26.4158 10.906 27.4024 10.3594C27.9224 10.066 28.5024 9.91938 29.1424 9.91938C30.5158 9.91938 31.4424 10.4527 31.9224 11.5194C32.1224 11.9594 32.2224 12.4127 32.2224 12.8794C32.2224 13.3327 32.1291 13.7927 31.9424 14.2594C31.4891 15.3794 30.7491 15.9394 29.7224 15.9394C29.5624 15.9394 29.4291 15.906 29.3224 15.8394C29.2158 15.7594 29.1358 15.646 29.0824 15.4994C29.4424 15.4994 29.7824 15.406 30.1024 15.2194C30.6358 14.8994 31.0491 14.3194 31.3424 13.4794C31.4358 13.1994 31.4824 12.9727 31.4824 12.7994C31.4824 12.6127 31.4691 12.406 31.4424 12.1794C31.4158 11.9394 31.3291 11.666 31.1824 11.3594C31.0358 11.0527 30.7824 10.806 30.4224 10.6194C30.0624 10.4327 29.6358 10.3394 29.1424 10.3394C27.8758 10.3394 26.9424 10.8994 26.3424 12.0194C25.9958 12.6594 25.8224 13.266 25.8224 13.8394C25.8224 14.4127 25.8824 14.926 26.0024 15.3794C26.3491 16.646 27.0758 17.5194 28.1824 17.9994C28.7024 18.226 29.3624 18.3394 30.1624 18.3394C30.9624 18.3394 31.7691 18.1127 32.5824 17.6594C33.4091 17.2194 34.1158 16.6194 34.7024 15.8594C35.3024 15.086 35.8424 14.226 36.3224 13.2794C36.8024 12.3327 37.2358 11.3127 37.6224 10.2194C38.0224 9.11271 38.3824 8.06604 38.7024 7.07938C39.5558 4.54604 40.2958 2.77938 40.9224 1.77938C38.9091 1.15271 37.4491 0.839376 36.5424 0.839376C34.8224 0.839376 33.5424 1.49271 32.7024 2.79937C32.2224 3.54604 31.9824 4.31271 31.9824 5.09938C31.9824 5.32604 32.0091 5.55937 32.0624 5.79938C32.2091 6.67938 32.6024 7.20604 33.2424 7.37937C33.3624 7.40604 33.4824 7.41937 33.6024 7.41937C33.5224 7.69938 33.3024 7.83938 32.9424 7.83938C32.1291 7.83938 31.5558 7.40604 31.2224 6.53937C31.0624 6.12604 30.9824 5.66604 30.9824 5.15938C30.9824 4.65271 31.1158 4.08604 31.3824 3.45938C31.9424 2.11271 32.9291 1.19271 34.3424 0.699375C35.0091 0.472709 35.7691 0.359375 36.6224 0.359375C37.4891 0.359375 39.0091 0.706042 41.1824 1.39938C41.8358 0.466042 42.5824 -0.000624776 43.4224 -0.000624776C43.5291 -0.000624776 43.6091 0.0327086 43.6624 0.0993754C43.7158 0.166042 43.7491 0.259376 43.7624 0.379376C42.9758 0.379376 42.2758 0.772709 41.6624 1.55937C42.2624 1.74604 42.6491 1.87271 42.8224 1.93938C43.3824 0.966042 43.9091 0.479376 44.4024 0.479376C44.6291 0.479376 44.7624 0.546042 44.8024 0.679375L44.8224 0.739376C44.4491 0.739376 44.0558 1.23271 43.6424 2.21938L46.5024 3.13937C47.3958 1.45938 48.3291 0.619375 49.3024 0.619375C49.4358 0.619375 49.5424 0.652709 49.6224 0.719375C49.7024 0.786042 49.7558 0.886042 49.7824 1.01938C48.7824 1.01938 47.8624 1.77938 47.0224 3.29938C47.7424 3.48604 48.1891 3.59271 48.3624 3.61938C49.1491 2.05938 49.8558 1.27938 50.4824 1.27938C50.7091 1.27938 50.8424 1.34604 50.8824 1.47937L50.9024 1.53938C50.4624 1.53938 49.9291 2.27938 49.3024 3.75937C49.3958 3.77271 49.5224 3.77938 49.6824 3.77938C51.0024 3.77938 51.9291 3.38604 52.4624 2.59938C52.6891 2.29271 52.8024 2.03271 52.8024 1.81937C52.8024 1.21938 52.5358 0.919376 52.0024 0.919376C52.1224 0.732709 52.3158 0.639376 52.5824 0.639376C53.1024 0.639376 53.4424 0.899376 53.6024 1.41938C53.6424 1.57938 53.6624 1.73271 53.6624 1.87938C53.6624 2.31938 53.4758 2.75271 53.1024 3.17938C52.4491 3.89938 51.4424 4.25938 50.0824 4.25938C49.7624 4.25938 49.4491 4.23271 49.1424 4.17938C48.5558 5.68604 48.0491 7.42604 47.6224 9.39937C47.2091 11.3727 47.0024 13.1327 47.0024 14.6794C47.0024 16.226 47.3158 16.9994 47.9424 16.9994C47.8091 17.266 47.6158 17.3994 47.3624 17.3994C46.3224 17.3994 45.8024 16.2594 45.8024 13.9794C45.8024 12.6327 46.0158 11.0327 46.4424 9.17937C46.8691 7.31271 47.4491 5.58604 48.1824 3.99938C47.8358 3.93271 47.3824 3.81938 46.8224 3.65937C46.2358 4.80604 45.6158 6.48604 44.9624 8.69937C44.3224 10.8994 43.7491 12.706 43.2424 14.1194C42.7491 15.5327 42.2491 16.2394 41.7424 16.2394C40.7291 16.2394 40.2224 15.026 40.2224 12.5994C40.2224 11.1194 40.4358 9.38604 40.8624 7.39938C41.3024 5.41271 41.8824 3.71938 42.6024 2.31938ZM41.5624 13.4194C41.5624 14.5394 41.6958 15.0994 41.9624 15.0994C42.2424 15.0994 42.5824 14.4594 42.9824 13.1794C43.3958 11.8994 43.9024 10.2594 44.5024 8.25937C45.1158 6.25938 45.7158 4.67938 46.3024 3.51938C45.1024 3.14604 44.1624 2.84604 43.4824 2.61937C42.8958 4.19271 42.4091 6.22604 42.0224 8.71938C41.7158 10.7327 41.5624 12.2994 41.5624 13.4194Z" fill="white"/>
</svg>
