<svg width="59" height="59" viewBox="0 0 59 59" fill="none" xmlns="http://www.w3.org/2000/svg">
<g filter="url(#filter0_d_1_551)">
<path d="M27.9167 18.875V16.2917C27.9167 15.5812 28.4979 15 29.2083 15C29.9187 15 30.5 15.5812 30.5 16.2917V18.875C30.5 19.5854 29.9187 20.1667 29.2083 20.1667C28.4979 20.1667 27.9167 19.5854 27.9167 18.875ZM37.4233 22.8146L39.2446 20.9804C39.7483 20.4767 39.7483 19.6629 39.2446 19.1592C38.7408 18.6554 37.9271 18.6554 37.4233 19.1592L35.6021 20.9933C35.0983 21.4971 35.0983 22.3108 35.6021 22.8146C36.1058 23.3183 36.9196 23.3183 37.4233 22.8146ZM42.125 27.9167H39.5417C38.8312 27.9167 38.25 28.4979 38.25 29.2083C38.25 29.9187 38.8312 30.5 39.5417 30.5H42.125C42.8354 30.5 43.4167 29.9187 43.4167 29.2083C43.4167 28.4979 42.8354 27.9167 42.125 27.9167ZM29.2083 38.25C28.4979 38.25 27.9167 38.8312 27.9167 39.5417V42.125C27.9167 42.8354 28.4979 43.4167 29.2083 43.4167C29.9187 43.4167 30.5 42.8354 30.5 42.125V39.5417C30.5 38.8312 29.9187 38.25 29.2083 38.25ZM20.9933 22.8146L19.1592 20.9933C18.6554 20.4896 18.6554 19.6629 19.1592 19.1721C19.6629 18.6812 20.4896 18.6683 20.9804 19.1721L22.8017 20.9933C23.3054 21.4971 23.3054 22.3238 22.8017 22.8146C22.2979 23.3054 21.4842 23.3183 20.9933 22.8146ZM35.6021 35.6021C35.0983 36.1058 35.0983 36.9325 35.6021 37.4233L37.4233 39.2446C37.9271 39.7483 38.7537 39.7483 39.2446 39.2446C39.7483 38.7408 39.7483 37.9142 39.2446 37.4233L37.4233 35.6021C36.9325 35.0983 36.1058 35.0983 35.6021 35.6021ZM16.2917 30.5H18.875C19.5854 30.5 20.1667 29.9187 20.1667 29.2083C20.1667 28.4979 19.5854 27.9167 18.875 27.9167H16.2917C15.5812 27.9167 15 28.4979 15 29.2083C15 29.9187 15.5812 30.5 16.2917 30.5ZM20.9933 39.2575L22.8146 37.4363C23.3183 36.9325 23.3183 36.1058 22.8146 35.615C22.3108 35.1242 21.4842 35.1112 20.9933 35.615L19.1721 37.4363C18.6683 37.94 18.6683 38.7667 19.1721 39.2575C19.6629 39.7612 20.4896 39.7612 20.9933 39.2575ZM29.2083 21.4583C24.9329 21.4583 21.4583 24.9329 21.4583 29.2083C21.4583 33.4837 24.9329 36.9583 29.2083 36.9583C33.4837 36.9583 36.9583 33.4837 36.9583 29.2083C36.9583 24.9329 33.4837 21.4583 29.2083 21.4583Z" fill="#FFEA00"/>
</g>
<defs>
<filter id="filter0_d_1_551" x="0" y="0" width="58.4165" height="58.416" filterUnits="userSpaceOnUse" color-interpolation-filters="sRGB">
<feFlood flood-opacity="0" result="BackgroundImageFix"/>
<feColorMatrix in="SourceAlpha" type="matrix" values="0 0 0 0 0 0 0 0 0 0 0 0 0 0 0 0 0 0 127 0" result="hardAlpha"/>
<feOffset/>
<feGaussianBlur stdDeviation="7.5"/>
<feComposite in2="hardAlpha" operator="out"/>
<feColorMatrix type="matrix" values="0 0 0 0 1 0 0 0 0 0.916667 0 0 0 0 0 0 0 0 1 0"/>
<feBlend mode="normal" in2="BackgroundImageFix" result="effect1_dropShadow_1_551"/>
<feBlend mode="normal" in="SourceGraphic" in2="effect1_dropShadow_1_551" result="shape"/>
</filter>
</defs>
</svg>
