<svg width="204" height="151" viewBox="0 0 204 151" fill="none" xmlns="http://www.w3.org/2000/svg">
<path d="M8.74414 137.51C20.0714 132.655 8.74414 115.01 19.2422 98.0098C40.0687 64.2844 70.7791 77.005 77.5239 60.732C81.4453 51.2708 85.5298 38.6695 96.6905 36.0654C102.631 34.6791 110.642 34.7417 116.246 37.0654C125.616 40.9503 134.299 47.4683 137.079 57.8431C138.664 63.7559 137.079 70.5102 128.468 73.9542C113.609 79.8971 90.9507 72.4153 78.3017 62.9543C68.6552 55.7391 62.2305 45.5103 74.2324 27.0098C105.23 -7.48975 163.398 -3.73468 194.721 15.5098" stroke="white" stroke-width="2" stroke-linecap="round"/>
<circle cx="195.723" cy="15.5098" r="8" fill="white"/>
<path d="M15.9518 147.331C15.2171 148.651 13.3408 148.711 12.5229 147.442L3.92983 134.1C3.0882 132.793 3.99354 131.068 5.54704 131.018L21.8592 130.494C23.4127 130.444 24.4269 132.108 23.6709 133.466L15.9518 147.331Z" fill="white"/>
</svg>
