<svg width="234" height="250" viewBox="0 0 234 250" fill="none" xmlns="http://www.w3.org/2000/svg">
<path d="M221.302 11.7827C222.374 20.7192 225.276 29.745 226.956 38.6329C229.66 52.9397 229.992 68.8033 227.46 83.152C219.381 128.927 189.904 175.51 145.322 202.003C110.861 222.483 68.4808 232.15 27.2467 233.132" stroke="white" stroke-width="2" stroke-linecap="round"/>
<path d="M10.3231 233.935C9.0742 233.03 9.31333 231.098 10.7505 230.482L27.5109 223.302C28.9294 222.694 30.4552 223.827 30.2669 225.348L28.0709 243.087C27.8826 244.608 26.1202 245.387 24.8875 244.493L10.3231 233.935Z" fill="white"/>
<ellipse cx="218.978" cy="8.66612" rx="8.4552" ry="8.95553" transform="rotate(88.6352 218.978 8.66612)" fill="white"/>
</svg>
