<svg width="204" height="151" viewBox="0 0 204 151" fill="none" xmlns="http://www.w3.org/2000/svg">
<path d="M8.74316 137.51C20.0704 132.655 8.74316 115.01 19.2412 98.0098C40.0677 64.2844 70.7782 77.005 77.5229 60.732C81.4443 51.2708 85.5288 38.6695 96.6896 36.0654C102.631 34.6791 110.641 34.7417 116.245 37.0654C125.615 40.9503 134.298 47.4683 137.078 57.8431C138.663 63.7559 137.078 70.5102 128.467 73.9542C113.608 79.8971 90.9497 72.4153 78.3007 62.9543C68.6543 55.7391 62.2295 45.5103 74.2314 27.0098C105.229 -7.48975 163.397 -3.73468 194.72 15.5098" stroke="#202023" stroke-width="2" stroke-linecap="round"/>
<circle cx="195.723" cy="15.5098" r="8" fill="#202023"/>
<path d="M15.9508 147.331C15.2161 148.651 13.3398 148.711 12.522 147.442L3.92886 134.1C3.08722 132.793 3.99256 131.068 5.54606 131.018L21.8583 130.494C23.4118 130.444 24.426 132.108 23.6699 133.466L15.9508 147.331Z" fill="#202023"/>
</svg>
